<?xml version="1.0" encoding="utf-8"?>
<!-- Generator: Adobe Illustrator 24.2.1, SVG Export Plug-In . SVG Version: 6.00 Build 0)  -->
<svg version="1.1" id="Layer_1" xmlns="http://www.w3.org/2000/svg" xmlns:xlink="http://www.w3.org/1999/xlink" x="0px" y="0px"
	 viewBox="0 0 372.5 636.2" style="enable-background:new 0 0 372.5 636.2;" xml:space="preserve">
<style type="text/css">
	.st0{fill:#E22022;stroke:#E22022;stroke-width:9.375000e-02;stroke-miterlimit:10;}
	.st1{fill:#0B6FB7;stroke:#0B6FB7;stroke-width:9.375000e-02;stroke-miterlimit:10;}
</style>
<path class="st0" d="M214.6,22.5c9.4,10.7,12.5,26,9.8,39.8c-2.9,15.5-11.5,29.2-21.6,41c-8.1,9.5-17.4,17.9-27.1,25.7
	c-11.3,9.1-22.4,18.9-29.5,31.7c-6,10.4-7.4,23.2-3.3,34.5c6.7,19.4,22.3,33.8,30.8,52.1c-9.4-8.3-18.6-16.9-27.2-26
	c-9-9.6-17.5-19.8-23.1-31.8c-3.8-8.4-5.5-18.2-2.6-27.1c2.9-9.1,9.4-16.4,15.9-23.2c18.1-18.1,40.4-31.4,58.1-49.8
	c9.8-10.1,17.9-22.2,20.7-36.1C217.8,43.1,216.7,32.6,214.6,22.5L214.6,22.5z"/>
<path class="st0" d="M199.8,136.4c19.4-14.3,42.1-23.4,65.1-30c-18.2,11.6-37.2,22.2-52.9,37.1c-5.7,5.5-11.1,11.8-13.6,19.5
	c-1.9,5.7-1.1,12,1.2,17.4c4.2,9.6,11.3,17.4,16.7,26.2c4.6,7.5,5.4,17.1,1.9,25.2c-5.3,11.9-15.7,20.6-26.5,27.5
	c-1.4,0.8-2.6,2.3-4.3,2.5c7.2-6.5,12.8-15.7,12.6-25.6c-0.2-7.4-4.3-13.9-9.1-19.2c-9.9-11.8-18.2-26.8-16.5-42.7
	C176.1,158.4,187.5,145.6,199.8,136.4L199.8,136.4z"/>
<path class="st1" d="M268.6,252c4.2-5.1,10.9-6.4,17-7.2c10.6-1.4,21.9,1.3,29.9,8.6c6.6,5.9,10.3,15.1,8.9,24
	c-1.5,10.3-8.4,18.9-16.2,25.4c-14.1,11.3-31.5,17.9-48.9,22.3c1-1.1,2.1-2.1,3.4-2.9c13.2-7.1,26.3-15.4,36-27
	c5.9-7.2,10.5-16.6,8.6-26.1c-2-11-12.7-19-23.6-19.6C278.5,249,273.6,251,268.6,252L268.6,252z"/>
<path class="st1" d="M67.6,261.1c18.4-7.9,38.4-13,58.5-12.7c-11.7,3.4-23.7,6.3-34.7,11.5c-2.6,1.4-5.6,2.7-7.1,5.4
	c-0.8,2.1,1.4,3.5,3,4.2c6.8,2.8,14.3,3.2,21.6,3.9c25.6,1.7,51.3,0.7,76.8-0.9c25.2-1.6,50.2-5,75.1-9c-5.5,2.6-11.1,5.2-16.2,8.5
	c-2.6,1.8-5.8,2.3-8.7,3c-30.6,6.8-62,8.9-93.2,9.4c-12.1,0.1-24.1-0.1-36.1-0.9c-13.4-0.9-26.9-1.9-40-5.4c-3.8-1.1-7.8-2.3-10.8-5
	c-1.5-1.2-1.5-3.6-0.2-5C58.9,264.7,63.5,263.1,67.6,261.1L67.6,261.1z"/>
<path class="st1" d="M91.2,303.8c5.2-4.1,11.4-6.4,17.6-8.6c-2,2.4-4.8,4.7-5,8c-0.1,2.1,1.6,3.7,3.3,4.7c3.3,1.7,7,2.3,10.7,2.8
	c19.2,2,38.6,3.1,58,1.8c17.7-0.9,35.3-3.8,52.8-6.9c4.8,4.5,10.5,7.6,16.5,10.3c-21.1,6.2-42.8,9.8-64.6,11.5
	c-20.6,1.4-41.5,1.3-62-2c-8.1-1.5-16.4-3.2-23.8-7c-3-1.6-6.4-3.7-7.3-7.2C86.8,308.2,89,305.5,91.2,303.8L91.2,303.8z"/>
<path class="st1" d="M102.8,347.4c4.6-3.7,10.3-5.6,15.9-7.2c-1.8,1.7-5,3.8-3.6,6.7c2.7,3.5,7.7,3.9,11.7,4.8
	c16.9,2.1,34,3.5,50.9,2.2c12.8-0.8,25.4-3.1,37.9-5.3c7.2,4.2,14.7,7.8,22.4,11c-11.8,5.3-24.5,8.7-37.2,11.1
	c-21.4,3.8-43.5,4.3-65,0.9c-9.5-1.7-19.2-3.9-27.8-8.6c-3.3-1.9-6.8-4.1-8.2-7.8C98.7,352.3,100.5,349.2,102.8,347.4L102.8,347.4z"
	/>
<path class="st1" d="M47.3,375.7c9.2-3.1,18.7-5.6,28.4-5.9c3.9-0.1,7.9,0.1,11.3,2.1c-11.6,0.7-23.2,3.6-33.6,8.9
	c-2.3,1.3-4.9,2.8-5.8,5.5c0,3.1,3.5,4.1,5.8,5.1c14.5,5.4,30,7.1,45.2,8.7c45.3,3.8,90.9,2.8,136.2-1.3c17.1-1.9,34.3-3.8,50.9-8.5
	c5.3-1.8,11.3-3.6,14.8-8.3c2.1-2.8,0.7-6.3-1.4-8.7c3.4,1.9,8.2,4.3,7.5,8.9c-1.3,4.8-6.2,7.3-10.2,9.6
	c-12.8,6.5-26.9,9.8-40.9,12.7c-40.7,8-82.4,9.8-123.8,8.6c-31.2-1.1-62.4-4.1-93.2-9.4c-5.5-1.3-11.7-2.4-15.7-6.7
	c-2.6-3-0.3-7.2,2.2-9.4C31.3,381.8,39.4,378.6,47.3,375.7L47.3,375.7z"/>
<path class="st1" d="M296.5,409.9c10.1-3.5,20.9-7.2,28.4-15.2c-1.3,8.7-8.8,14.7-16.2,18.6c-14.2,7.4-30.1,10.8-45.9,13.6
	c-33.4,5.3-67.3,6.6-101.2,6c-23.1-0.7-46.4-1.6-69.1-6.4c-5.4-1.5-11.2-2.5-15.9-5.7c20.2,3.4,40.7,4.8,61.2,5.6
	c33.7,1,67.5-0.3,101-4.5C258.2,419.2,277.7,415.9,296.5,409.9L296.5,409.9z"/>
<path class="st0" d="M33,558.2c0.1-32.8-0.1-65.6,0.1-98.5c6.8,0.2,13.6,0,20.4,0.2c-0.1,36.7,0,73.5-0.1,110.3
	c-0.2,10.3-0.4,21.1-5.4,30.3c-5.5,9.8-15.3,16.7-25.7,20.7c-3.3-3.6-6.3-7.4-9.6-11l0,0c8.4-4.9,16.8-11.9,18.8-22
	C33.4,578.3,32.8,568.2,33,558.2L33,558.2z"/>
<path class="st0" d="M72.4,499.2c13.5-5.8,28.5-8.8,43.2-7.2c7.6,0.9,15.5,3.7,20.4,9.8c4.1,5.2,5.6,11.9,5.5,18.4
	c0,22.4,0,44.7,0,67.1c-5,0-10,0-15.1,0c-0.5-3.3-1-6.7-1.4-10.1c-5.7,4.5-11.8,8.8-18.9,10.6c-8.1,2.1-17,1.9-24.9-1.2
	c-6.1-2.5-10.9-8-12.6-14.4c-2.5-9.3-1.2-20.2,5.4-27.7c5.9-6.9,14.8-10.3,23.6-11.9c8.1-1.6,16.4-1.6,24.7-1.6
	c-0.2-6.3,1-13.2-2.6-18.8c-2.9-4.3-8.2-6-13.1-6.3c-10.7-0.9-21.3,1.8-31.4,5.3C74.2,507.2,73.3,503.2,72.4,499.2 M97.2,545.6
	c-4.4,1.4-8.5,4.6-9.7,9.2c-1.4,5.1-1,11.1,2.3,15.4c3.2,4.2,9,5.2,14,4.6c7-0.8,13.1-4.8,18.5-9.1c0-7.5-0.1-14.9,0-22.4
	C113.9,543.3,105.3,542.8,97.2,545.6L97.2,545.6z"/>
<path class="st0" d="M248.2,499.2c13.6-5.8,28.6-8.9,43.4-7.2c7.4,0.9,15,3.6,19.9,9.4c4.6,5.5,6,12.8,5.9,19.8
	c-0.1,22.1,0.1,44.1-0.2,66.2c-5-0.2-10,0.1-15-0.2c-0.5-3.4-0.9-6.7-1.5-10c-7,6-15.4,10.9-24.9,11.7c-8.7,0.8-18.5-0.3-25.3-6.5
	c-7.1-6.6-8.3-17.3-6.5-26.4c1.7-8.4,8-15.3,15.6-19c11.9-5.8,25.5-6.1,38.5-6c-0.2-6.1,0.9-12.6-2.2-18.1
	c-2.4-4.4-7.5-6.4-12.3-6.9c-11.1-1.2-22.2,1.6-32.6,5.2C250.1,507.2,249.1,503.2,248.2,499.2 M272.7,545.7c-4.2,1.4-8.1,4.6-9.4,9
	c-1.4,5.1-1,11.1,2.2,15.5c3.3,4.3,9.2,5.2,14.3,4.6c6.9-1,13.2-4.8,18.4-9.4c-0.2-7.3-0.1-14.7-0.1-22.1
	C289.6,543.3,280.9,542.8,272.7,545.7L272.7,545.7z"/>
<path class="st0" d="M152.9,493.2c7,0,14,0,21,0c4.1,13.2,8.1,26.3,12.2,39.5c2.4,8.1,5.4,16.1,7.1,24.4c0.9,3.7,1.7,7.5,2.8,11.1
	c8.6-24.3,15.2-49.4,18.6-75c6.8,0,13.6,0,20.4,0c-5.9,32.4-15.2,64.3-29.2,94.1c-8,0-16,0-24,0
	C172.2,555.9,162.5,524.6,152.9,493.2L152.9,493.2z"/>
<g>
	<path class="st0" d="M321.4,491.4h-2.5v-0.9h6v0.9h-2.5v7.2h-1.1V491.4z"/>
	<path class="st0" d="M332.6,495.1c-0.1-1.1-0.1-2.5-0.1-3.5h0c-0.3,0.9-0.6,2-1,3.1l-1.4,3.9h-0.8l-1.3-3.8
		c-0.4-1.2-0.7-2.2-0.9-3.1h0c0,1-0.1,2.4-0.2,3.6l-0.2,3.5h-1l0.6-8.1h1.3l1.4,3.9c0.3,1,0.6,1.9,0.8,2.7h0
		c0.2-0.8,0.5-1.7,0.9-2.7l1.4-3.9h1.3l0.5,8.1h-1L332.6,495.1z"/>
</g>
</svg>
