<?xml version="1.0" encoding="utf-8"?>
<!-- Generator: Adobe Illustrator 24.2.1, SVG Export Plug-In . SVG Version: 6.00 Build 0)  -->
<svg version="1.1" id="Layer_1" xmlns="http://www.w3.org/2000/svg" xmlns:xlink="http://www.w3.org/1999/xlink" x="0px" y="0px"
	 viewBox="0 0 841.9 595.3" style="enable-background:new 0 0 841.9 595.3;" xml:space="preserve">
<style type="text/css">
	.st0{fill:#646464;}
	.st1{fill:url(#path1948_1_);}
	.st2{fill:url(#path1950_1_);}
	.st3{opacity:0.4438;fill:url(#path1894_1_);enable-background:new    ;}
</style>
<g id="g2303">
	<path id="path46" class="st0" d="M362.6,287.4c0-14.6-4.2-22-12.5-22.4c-3.3-0.2-6.5,0.4-9.7,1.6c-2.5,0.9-4.2,1.8-5.1,2.7V304
		c5.3,3.3,10,4.9,14.1,4.6C358.2,308.1,362.6,301,362.6,287.4z M372.8,288c0,7.4-1.7,13.5-5.2,18.4c-3.9,5.5-9.3,8.4-16.2,8.5
		c-5.2,0.2-10.5-1.5-16.1-4.9v31.6l-8.9-3.2v-70.1c1.5-1.8,3.3-3.3,5.6-4.6c5.3-3.1,11.7-4.7,19.3-4.8l0.1,0.1
		c6.9-0.1,12.3,2.8,16,8.5C371.1,272.9,372.8,279.7,372.8,288z"/>
	<path id="path48" class="st0" d="M427.3,308.7c0,9.9-1,16.8-3,20.6c-2,3.8-5.8,6.9-11.4,9.1c-4.6,1.8-9.5,2.8-14.8,2.9l-1.5-5.6
		c5.4-0.7,9.2-1.5,11.3-2.2c4.3-1.5,7.3-3.7,8.9-6.7c1.3-2.4,1.9-7.1,1.9-14v-2.3c-6.1,2.8-12.5,4.1-19.2,4.1
		c-4.4,0-8.3-1.4-11.6-4.1c-3.7-3-5.6-6.8-5.6-11.5V262l8.9-3.1v37.3c0,4,1.3,7.1,3.9,9.2c2.6,2.2,5.9,3.2,10,3.1
		c4.1-0.1,8.5-1.7,13.1-4.8v-43.5h8.9V308.7z"/>
	<path id="path50" class="st0" d="M462,314.5c-1.1,0.1-2,0.1-2.9,0.1c-5,0-9-1.2-11.8-3.6c-2.8-2.4-4.2-5.7-4.2-10v-35.1H437v-5.6
		h6.1v-14.9l8.9-3.2v18.1h10v5.6h-10v34.8c0,3.3,0.9,5.7,2.7,7.1c1.5,1.1,4,1.8,7.3,2V314.5z"/>
	<path id="path52" class="st0" d="M516,313.7h-8.9v-34.4c0-3.5-0.8-6.5-2.4-9c-1.9-2.8-4.5-4.3-7.8-4.3c-4.1,0-9.2,2.2-15.3,6.5
		v41.2h-8.9v-82.2l8.9-2.8v37.4c5.7-4.1,11.9-6.2,18.7-6.2c4.7,0,8.5,1.6,11.5,4.8c2.9,3.2,4.4,7.1,4.4,11.8V313.7L516,313.7z"/>
	<path id="path54" class="st0" d="M563.3,286c0-5.6-1.1-10.2-3.2-13.9c-2.5-4.5-6.4-6.8-11.7-7c-9.8,0.6-14.6,7.6-14.6,21
		c0,6.2,1,11.3,3.1,15.4c2.6,5.3,6.5,7.8,11.8,7.8C558.4,309.2,563.3,301.4,563.3,286z M573.1,286.1c0,8-2,14.6-6.1,19.9
		c-4.5,5.9-10.7,8.9-18.5,8.9c-7.8,0-13.9-3-18.3-8.9c-4-5.3-6-11.9-6-19.9c0-7.5,2.2-13.8,6.5-18.9c4.6-5.4,10.5-8.2,17.9-8.2
		c7.4,0,13.4,2.7,18.1,8.2C570.9,272.3,573.1,278.6,573.1,286.1z"/>
	<path id="path56" class="st0" d="M624.2,313.7h-8.9v-36.3c0-4-1.2-7.1-3.6-9.3c-2.4-2.2-5.6-3.3-9.6-3.2c-4.2,0.1-8.3,1.5-12.1,4.1
		v44.8h-8.9v-45.9c5.1-3.7,9.8-6.2,14.2-7.3c4.1-1.1,7.7-1.6,10.7-1.6c2.1,0,4.1,0.2,6,0.6c3.5,0.8,6.3,2.3,8.5,4.5
		c2.4,2.4,3.7,5.4,3.7,8.8V313.7z"/>
	
		<linearGradient id="path1948_1_" gradientUnits="userSpaceOnUse" x1="293.6082" y1="158.9346" x2="402.6303" y2="65.1357" gradientTransform="matrix(0.5625 0 0 -0.568 15.6638 325.3453)">
		<stop  offset="0" style="stop-color:#5A9FD4"/>
		<stop  offset="1" style="stop-color:#306998"/>
	</linearGradient>
	<path id="path1948" class="st1" d="M238.5,231.9c-4.6,0-9,0.4-12.8,1.1c-11.3,2-13.4,6.2-13.4,13.9v10.2h26.8v3.4h-26.8h-10.1
		c-7.8,0-14.6,4.7-16.8,13.6c-2.5,10.2-2.6,16.6,0,27.3c1.9,7.9,6.5,13.6,14.3,13.6h9.2v-12.3c0-8.9,7.7-16.7,16.8-16.7h26.8
		c7.5,0,13.4-6.1,13.4-13.6v-25.5c0-7.3-6.1-12.7-13.4-13.9C247.8,232.2,243,231.9,238.5,231.9z M224,240.1c2.8,0,5,2.3,5,5.1
		c0,2.8-2.3,5.1-5,5.1c-2.8,0-5-2.3-5-5.1C218.9,242.4,221.2,240.1,224,240.1z"/>
	
		<linearGradient id="path1950_1_" gradientUnits="userSpaceOnUse" x1="444.7763" y1="8.3739" x2="405.8466" y2="63.4527" gradientTransform="matrix(0.5625 0 0 -0.568 15.6638 325.3453)">
		<stop  offset="0" style="stop-color:#FFD43B"/>
		<stop  offset="1" style="stop-color:#FFE873"/>
	</linearGradient>
	<path id="path1950" class="st2" d="M269.2,260.5v11.9c0,9.2-7.8,17-16.7,17h-26.8c-7.3,0-13.4,6.3-13.4,13.6v25.5
		c0,7.3,6.3,11.5,13.4,13.6c8.5,2.5,16.6,2.9,26.8,0c6.7-2,13.4-5.9,13.4-13.6v-10.2h-26.8V315h26.8h13.4c7.8,0,10.7-5.4,13.4-13.6
		c2.8-8.4,2.7-16.5,0-27.3c-1.9-7.8-5.6-13.6-13.4-13.6H269.2z M254.1,325.2c2.8,0,5,2.3,5,5.1c0,2.8-2.3,5.1-5,5.1
		c-2.8,0-5-2.3-5-5.1C249.1,327.5,251.3,325.2,254.1,325.2z"/>
	<path id="text3004" class="st0" d="M641.5,252.4h1.6v-9.8h3.7v-1.2h-9v1.2h3.7V252.4 M648.2,252.4h1.3v-8.9l2.9,8.9h1.5l3-8.9v8.9
		h1.5v-11h-1.9l-3.3,9.4l-2.8-9.4h-2.2V252.4"/>
	
		<radialGradient id="path1894_1_" cx="-907.6599" cy="319.3365" r="29.0375" gradientTransform="matrix(0 -0.2399 -1.0547 0 576.165 141.8266)" gradientUnits="userSpaceOnUse">
		<stop  offset="0" style="stop-color:#B8B8B8;stop-opacity:0.498"/>
		<stop  offset="1" style="stop-color:#7F7F7F;stop-opacity:0"/>
	</radialGradient>
	<path id="path1894" class="st3" d="M275.3,359.6c0,3.8-16.1,7-35.9,7c-19.8,0-35.9-3.1-35.9-7c0-3.8,16.1-7,35.9-7
		C259.2,352.6,275.3,355.7,275.3,359.6L275.3,359.6z"/>
</g>
</svg>
